<svg width="44" height="44" viewBox="0 0 44 44" fill="none" xmlns="http://www.w3.org/2000/svg">
  <defs>
    <linearGradient id="g1" x1="8" y1="6" x2="36" y2="38" gradientUnits="userSpaceOnUse">
      <stop stop-color="#D946EF"/>
      <stop offset="0.48" stop-color="#8B5CF6"/>
      <stop offset="1" stop-color="#4C1D95"/>
    </linearGradient>
    <linearGradient id="g2" x1="13" y1="8" x2="28" y2="35" gradientUnits="userSpaceOnUse">
      <stop stop-color="#F0ABFC"/>
      <stop offset="1" stop-color="#7C3AED"/>
    </linearGradient>
    <filter id="glow" x="-12" y="-12" width="68" height="68" filterUnits="userSpaceOnUse" color-interpolation-filters="sRGB">
      <feGaussianBlur stdDeviation="3.4" result="blur"/>
      <feColorMatrix in="blur" type="matrix" values="0 0 0 0 0.56 0 0 0 0 0.16 0 0 0 0 1 0 0 0 0.55 0"/>
      <feBlend in="SourceGraphic"/>
    </filter>
  </defs>
  <g filter="url(#glow)">
    <path d="M22 4L37 12.7V30.1L22 38.8L7 30.1V12.7L22 4Z" fill="#070912" stroke="#A855F7" stroke-width="1.5"/>
    <path d="M22 4L37 12.7L22 21.4L7 12.7L22 4Z" fill="url(#g2)" fill-opacity="0.9"/>
    <path d="M7 12.7L22 21.4V38.8L7 30.1V12.7Z" fill="#5B21B6" fill-opacity="0.88"/>
    <path d="M37 12.7L22 21.4V38.8L37 30.1V12.7Z" fill="#2E1065" fill-opacity="0.96"/>
    <path d="M22 21.4V38.8M7 12.7L22 21.4L37 12.7" stroke="#C084FC" stroke-width="1.2" stroke-linecap="round" stroke-linejoin="round"/>
    <path d="M15.5 10.2L22 6.5L28.5 10.2L22 13.9L15.5 10.2Z" fill="#070912" fill-opacity="0.38"/>
    <path d="M11.5 17L17.2 20.3V26.9L11.5 23.6V17Z" fill="#D946EF" fill-opacity="0.4"/>
    <path d="M31.9 17L26.2 20.3V26.9L31.9 23.6V17Z" fill="#A855F7" fill-opacity="0.42"/>
  </g>
</svg>
